<?xml version="1.0" encoding="utf-8"?>
<!-- Generator: Adobe Illustrator 18.1.0, SVG Export Plug-In . SVG Version: 6.00 Build 0)  -->
<svg version="1.1" id="Layer_1" xmlns="http://www.w3.org/2000/svg" xmlns:xlink="http://www.w3.org/1999/xlink" x="0px" y="0px"
	 viewBox="0 0 19 16" enable-background="new 0 0 19 16" xml:space="preserve">
<g>
	<path fill="#919191" d="M2,1c0.6,0,1,0.4,1,1c0,0.6-0.4,1-1,1C1.5,3,1,2.6,1,2C1,1.4,1.5,1,2,1 M2,0C0.9,0,0,0.9,0,2
		c0,1.1,0.9,2,2,2c1.1,0,2-0.9,2-2C4,0.9,3.1,0,2,0L2,0z"/>
</g>
<g>
	<path fill="#919191" d="M2,7c0.6,0,1,0.4,1,1S2.6,9,2,9C1.5,9,1,8.6,1,8S1.5,7,2,7 M2,6C0.9,6,0,6.9,0,8s0.9,2,2,2c1.1,0,2-0.9,2-2
		S3.1,6,2,6L2,6z"/>
</g>
<g>
	<path fill="#919191" d="M2,13c0.6,0,1,0.4,1,1c0,0.6-0.4,1-1,1c-0.6,0-1-0.4-1-1C1,13.4,1.5,13,2,13 M2,12c-1.1,0-2,0.9-2,2
		s0.9,2,2,2c1.1,0,2-0.9,2-2S3.1,12,2,12L2,12z"/>
</g>
<g>
	<path fill="#919191" d="M17,1c0.6,0,1,0.4,1,1c0,0.6-0.4,1-1,1H7C6.5,3,6,2.6,6,2c0-0.6,0.4-1,1-1H17 M17,0H7C5.9,0,5,0.9,5,2
		c0,1.1,0.9,2,2,2h10c1.1,0,2-0.9,2-2C19,0.9,18.1,0,17,0L17,0z"/>
</g>
<g>
	<path fill="#919191" d="M17,7c0.6,0,1,0.4,1,1s-0.4,1-1,1H7C6.5,9,6,8.6,6,8s0.4-1,1-1H17 M17,6H7C5.9,6,5,6.9,5,8s0.9,2,2,2h10
		c1.1,0,2-0.9,2-2S18.1,6,17,6L17,6z"/>
</g>
<g>
	<path fill="#919191" d="M17,13c0.6,0,1,0.4,1,1c0,0.6-0.4,1-1,1H7c-0.6,0-1-0.4-1-1c0-0.6,0.4-1,1-1H17 M17,12H7c-1.1,0-2,0.9-2,2
		s0.9,2,2,2h10c1.1,0,2-0.9,2-2S18.1,12,17,12L17,12z"/>
</g>
</svg>
