<?xml version="1.0" encoding="utf-8"?>
<!-- Generator: Adobe Illustrator 18.1.0, SVG Export Plug-In . SVG Version: 6.00 Build 0)  -->
<svg version="1.1" id="Layer_1" xmlns="http://www.w3.org/2000/svg" xmlns:xlink="http://www.w3.org/1999/xlink" x="0px" y="0px"
	 viewBox="0 0 266.5 153.1" enable-background="new 0 0 266.5 153.1" xml:space="preserve">
<g>
	<circle fill="#055596" cx="61.5" cy="19.1" r="14.4"/>
	<path fill="#055596" d="M61.5,9.6c5.7,0,9.6,3.8,9.6,9.6s-3.8,9.6-9.6,9.6c-4.8,0-9.6-3.8-9.6-9.6S56.7,9.6,61.5,9.6 M61.5,0
		C51,0,42.3,8.6,42.3,19.1S51,38.3,61.5,38.3s19.1-8.6,19.1-19.1S72,0,61.5,0L61.5,0z"/>
</g>
<g>
	<circle fill="#055596" cx="61.5" cy="76.5" r="14.4"/>
	<path fill="#055596" d="M61.5,67c5.7,0,9.6,3.8,9.6,9.6s-3.8,9.6-9.6,9.6c-4.8,0-9.6-3.8-9.6-9.6S56.7,67,61.5,67 M61.5,57.4
		C51,57.4,42.3,66,42.3,76.5S51,95.7,61.5,95.7s19.1-8.6,19.1-19.1S72,57.4,61.5,57.4L61.5,57.4z"/>
</g>
<g>
	<circle fill="#055596" cx="61.5" cy="133.9" r="14.4"/>
	<path fill="#055596" d="M61.5,124.4c5.7,0,9.6,3.8,9.6,9.6s-3.8,9.6-9.6,9.6s-9.6-3.8-9.6-9.6S56.7,124.4,61.5,124.4 M61.5,114.8
		c-10.5,0-19.1,8.6-19.1,19.1s8.6,19.1,19.1,19.1s19.1-8.6,19.1-19.1S72,114.8,61.5,114.8L61.5,114.8z"/>
</g>
<g>
	<path fill="#055596" d="M109.3,33.5c-7.7,0-14.4-6.7-14.4-14.4s6.7-14.4,14.4-14.4H205c7.7,0,14.4,6.7,14.4,14.4
		s-6.7,14.4-14.4,14.4H109.3z"/>
	<path fill="#055596" d="M205,9.6c5.7,0,9.6,3.8,9.6,9.6s-3.8,9.6-9.6,9.6h-95.7c-4.8,0-9.6-3.8-9.6-9.6s3.8-9.6,9.6-9.6H205 M205,0
		h-95.7C98.8,0,90.2,8.6,90.2,19.1s8.6,19.1,19.1,19.1H205c10.5,0,19.1-8.6,19.1-19.1S215.5,0,205,0L205,0z"/>
</g>
<g>
	<path fill="#055596" d="M109.3,90.9c-7.7,0-14.4-6.7-14.4-14.4s6.7-14.4,14.4-14.4H205c7.7,0,14.4,6.7,14.4,14.4
		s-5.7,14.4-14.4,14.4H109.3z"/>
	<path fill="#055596" d="M205,67c5.7,0,9.6,3.8,9.6,9.6s-3.8,9.6-9.6,9.6h-95.7c-4.8,0-9.6-3.8-9.6-9.6s3.8-9.6,9.6-9.6H205
		 M205,57.4h-95.7c-10.5,0-19.1,8.6-19.1,19.1s8.6,19.1,19.1,19.1H205c10.5,0,19.1-8.6,19.1-19.1S215.5,57.4,205,57.4L205,57.4z"/>
</g>
<g>
	<path fill="#055596" d="M109.3,148.3c-7.7,0-14.4-6.7-14.4-14.4s6.7-14.4,14.4-14.4H205c7.7,0,14.4,6.7,14.4,14.4
		s-6.7,14.4-14.4,14.4H109.3z"/>
	<path fill="#055596" d="M205,124.4c5.7,0,9.6,3.8,9.6,9.6s-3.8,9.6-9.6,9.6h-95.7c-5.7,0-9.6-3.8-9.6-9.6s3.8-9.6,9.6-9.6H205
		 M205,114.8h-95.7c-10.5,0-19.1,8.6-19.1,19.1s8.6,19.1,19.1,19.1H205c10.5,0,19.1-8.6,19.1-19.1S215.5,114.8,205,114.8L205,114.8z
		"/>
</g>
</svg>
