<?xml version="1.0" encoding="utf-8"?>
<!-- Generator: Adobe Illustrator 18.1.0, SVG Export Plug-In . SVG Version: 6.00 Build 0)  -->
<svg version="1.1" id="Layer_1" xmlns="http://www.w3.org/2000/svg" xmlns:xlink="http://www.w3.org/1999/xlink" x="0px" y="0px"
	 viewBox="0 0 19 16" enable-background="new 0 0 19 16" xml:space="preserve">
<g>
	<path fill="#919191" d="M17,1c0.6,0,1,0.4,1,1c0,0.6-0.4,1-1,1H2C1.4,3,1,2.6,1,2c0-0.6,0.4-1,1-1H17 M17,0H2C0.9,0,0,0.9,0,2
		c0,1.1,0.9,2,2,2h15c1.1,0,2-0.9,2-2C19,0.9,18.1,0,17,0L17,0z"/>
</g>
<g>
	<path fill="#919191" d="M17,7c0.6,0,1,0.4,1,1s-0.4,1-1,1H2C1.4,9,1,8.6,1,8s0.4-1,1-1H17 M17,6H2C0.9,6,0,6.9,0,8s0.9,2,2,2h15
		c1.1,0,2-0.9,2-2S18.1,6,17,6L17,6z"/>
</g>
<g>
	<path fill="#919191" d="M17,13c0.6,0,1,0.4,1,1c0,0.6-0.4,1-1,1H2c-0.6,0-1-0.4-1-1c0-0.6,0.4-1,1-1H17 M17,12H2c-1.1,0-2,0.9-2,2
		s0.9,2,2,2h15c1.1,0,2-0.9,2-2S18.1,12,17,12L17,12z"/>
</g>
</svg>
