<?xml version="1.0" encoding="utf-8"?>
<!-- Generator: Adobe Illustrator 18.1.0, SVG Export Plug-In . SVG Version: 6.00 Build 0)  -->
<svg version="1.1" id="Layer_1" xmlns="http://www.w3.org/2000/svg" xmlns:xlink="http://www.w3.org/1999/xlink" x="0px" y="0px"
	 viewBox="0 0 16 16" enable-background="new 0 0 16 16" xml:space="preserve">
<g>
	<circle fill-rule="evenodd" clip-rule="evenodd" fill="#015596" cx="2" cy="2" r="1.5"/>
	<path fill="#055596" d="M2,1c0.6,0,1,0.4,1,1c0,0.6-0.4,1-1,1S1,2.6,1,2C1,1.4,1.4,1,2,1 M2,0C0.9,0,0,0.9,0,2s0.9,2,2,2s2-0.9,2-2
		S3.1,0,2,0L2,0z"/>
</g>
<g>
	<circle fill-rule="evenodd" clip-rule="evenodd" fill="#015596" cx="8" cy="2" r="1.5"/>
	<path fill="#055596" d="M8,1c0.6,0,1,0.4,1,1c0,0.6-0.4,1-1,1C7.4,3,7,2.6,7,2C7,1.4,7.4,1,8,1 M8,0C6.9,0,6,0.9,6,2s0.9,2,2,2
		c1.1,0,2-0.9,2-2S9.1,0,8,0L8,0z"/>
</g>
<g>
	<circle fill-rule="evenodd" clip-rule="evenodd" fill="#015596" cx="14" cy="2" r="1.5"/>
	<path fill="#055596" d="M14,1c0.6,0,1,0.4,1,1c0,0.6-0.4,1-1,1s-1-0.4-1-1C13,1.4,13.4,1,14,1 M14,0c-1.1,0-2,0.9-2,2s0.9,2,2,2
		s2-0.9,2-2S15.1,0,14,0L14,0z"/>
</g>
<g>
	<circle fill-rule="evenodd" clip-rule="evenodd" fill="#015596" cx="2" cy="8" r="1.5"/>
	<path fill="#055596" d="M2,7c0.6,0,1,0.4,1,1S2.6,9,2,9S1,8.6,1,8S1.4,7,2,7 M2,6C0.9,6,0,6.9,0,8c0,1.1,0.9,2,2,2s2-0.9,2-2
		C4,6.9,3.1,6,2,6L2,6z"/>
</g>
<g>
	<circle fill-rule="evenodd" clip-rule="evenodd" fill="#015596" cx="8" cy="8" r="1.5"/>
	<path fill="#055596" d="M8,7c0.6,0,1,0.4,1,1S8.6,9,8,9C7.4,9,7,8.6,7,8S7.4,7,8,7 M8,6C6.9,6,6,6.9,6,8c0,1.1,0.9,2,2,2
		c1.1,0,2-0.9,2-2C10,6.9,9.1,6,8,6L8,6z"/>
</g>
<g>
	<circle fill-rule="evenodd" clip-rule="evenodd" fill="#015596" cx="14" cy="8" r="1.5"/>
	<path fill="#055596" d="M14,7c0.6,0,1,0.4,1,1s-0.4,1-1,1s-1-0.4-1-1S13.4,7,14,7 M14,6c-1.1,0-2,0.9-2,2c0,1.1,0.9,2,2,2
		s2-0.9,2-2C16,6.9,15.1,6,14,6L14,6z"/>
</g>
<g>
	<circle fill-rule="evenodd" clip-rule="evenodd" fill="#015596" cx="2" cy="14" r="1.5"/>
	<path fill="#055596" d="M2,13c0.6,0,1,0.4,1,1s-0.4,1-1,1s-1-0.4-1-1S1.4,13,2,13 M2,12c-1.1,0-2,0.9-2,2c0,1.1,0.9,2,2,2
		s2-0.9,2-2C4,12.9,3.1,12,2,12L2,12z"/>
</g>
<g>
	<circle fill-rule="evenodd" clip-rule="evenodd" fill="#015596" cx="8" cy="14" r="1.5"/>
	<path fill="#055596" d="M8,13c0.6,0,1,0.4,1,1s-0.4,1-1,1c-0.6,0-1-0.4-1-1S7.4,13,8,13 M8,12c-1.1,0-2,0.9-2,2c0,1.1,0.9,2,2,2
		c1.1,0,2-0.9,2-2C10,12.9,9.1,12,8,12L8,12z"/>
</g>
<g>
	<circle fill-rule="evenodd" clip-rule="evenodd" fill="#015596" cx="14" cy="14" r="1.5"/>
	<path fill="#055596" d="M14,13c0.6,0,1,0.4,1,1s-0.4,1-1,1s-1-0.4-1-1S13.4,13,14,13 M14,12c-1.1,0-2,0.9-2,2c0,1.1,0.9,2,2,2
		s2-0.9,2-2C16,12.9,15.1,12,14,12L14,12z"/>
</g>
</svg>
