<?xml version="1.0" encoding="utf-8"?>
<!-- Generator: Adobe Illustrator 18.1.0, SVG Export Plug-In . SVG Version: 6.00 Build 0)  -->
<svg version="1.1" id="Layer_1" xmlns="http://www.w3.org/2000/svg" xmlns:xlink="http://www.w3.org/1999/xlink" x="0px" y="0px"
	 viewBox="0 0 80 80" enable-background="new 0 0 80 80" xml:space="preserve">
<path fill-rule="evenodd" clip-rule="evenodd" fill="#F8F8F8" d="M40.1,0c22.1,0,40,17.9,40,40c0,22.1-17.9,40-40,40
	c-22.1,0-40-17.9-40-40C0.1,17.9,18,0,40.1,0z"/>
<g>
	
		<line fill="none" stroke="#0774B6" stroke-width="1.5" stroke-linecap="round" stroke-linejoin="round" stroke-miterlimit="10" x1="61.7" y1="44.3" x2="65.1" y2="44.3"/>
	<path fill="none" stroke="#0774B6" stroke-width="1.5" stroke-linecap="round" stroke-linejoin="round" stroke-miterlimit="10" d="
		M60,49.5h1.7c1.9,0,3.4-1.5,3.4-3.4v-3.9c0-1.4-0.5-2.7-1.5-3.7l-5.9-5.9c-1.3-1.3-3.2-2.1-5.1-2.1h-4.8v19h3.4"/>
	<path fill="none" stroke="#0774B6" stroke-width="1.5" stroke-linecap="round" stroke-linejoin="round" stroke-miterlimit="10" d="
		M39.3,49.5h8.6v-19c0-2.9-2.3-5.2-5.2-5.2H28.9c-2.9,0-5.2,2.3-5.2,5.2v13.8c0,2.9,2.3,5.2,5.2,5.2h1.7"/>
	<path fill="none" stroke="#0774B6" stroke-width="1.5" stroke-linecap="round" stroke-linejoin="round" stroke-miterlimit="10" d="
		M59.1,34h-6c-1,0-1.7,0.8-1.7,1.7v1.7c0,1,0.8,1.7,1.7,1.7h11"/>
	
		<circle fill="none" stroke="#0774B6" stroke-width="1.5" stroke-linecap="round" stroke-linejoin="round" stroke-miterlimit="10" cx="35" cy="50.3" r="4.3"/>
	
		<circle fill="none" stroke="#0774B6" stroke-width="1.5" stroke-linecap="round" stroke-linejoin="round" stroke-miterlimit="10" cx="35" cy="50.3" r="0.9"/>
	
		<circle fill="none" stroke="#0774B6" stroke-width="1.5" stroke-linecap="round" stroke-linejoin="round" stroke-miterlimit="10" cx="55.7" cy="50.3" r="0.9"/>
	
		<circle fill="none" stroke="#0774B6" stroke-width="1.5" stroke-linecap="round" stroke-linejoin="round" stroke-miterlimit="10" cx="55.7" cy="50.3" r="4.3"/>
	
		<line fill="none" stroke="#0774B6" stroke-width="1.5" stroke-linecap="round" stroke-linejoin="round" stroke-miterlimit="10" x1="20.3" y1="42.6" x2="21.2" y2="42.6"/>
	
		<line fill="none" stroke="#0774B6" stroke-width="1.5" stroke-linecap="round" stroke-linejoin="round" stroke-miterlimit="10" x1="18.6" y1="39.1" x2="21.2" y2="39.1"/>
	
		<line fill="none" stroke="#0774B6" stroke-width="1.5" stroke-linecap="round" stroke-linejoin="round" stroke-miterlimit="10" x1="15.1" y1="32.2" x2="21.2" y2="32.2"/>
	
		<line fill="none" stroke="#0774B6" stroke-width="1.5" stroke-linecap="round" stroke-linejoin="round" stroke-miterlimit="10" x1="16.9" y1="35.7" x2="21.2" y2="35.7"/>
</g>
</svg>
