<?xml version="1.0" encoding="utf-8"?>
<!-- Generator: Adobe Illustrator 18.1.0, SVG Export Plug-In . SVG Version: 6.00 Build 0)  -->
<svg version="1.1" id="Layer_1" xmlns="http://www.w3.org/2000/svg" xmlns:xlink="http://www.w3.org/1999/xlink" x="0px" y="0px"
	 viewBox="0 0 80 80" enable-background="new 0 0 80 80" xml:space="preserve">
<path fill-rule="evenodd" clip-rule="evenodd" fill="#F8F8F8" d="M40,0c22.1,0,40,17.9,40,40c0,22.1-17.9,40-40,40
	C17.9,80,0,62.1,0,40C0,17.9,17.9,0,40,0z"/>
<g>
	
		<rect x="27.8" y="42.1" fill="none" stroke="#0774B6" stroke-width="1.5" stroke-linecap="round" stroke-linejoin="round" stroke-miterlimit="10" width="24.3" height="19.4"/>
	<path fill="none" stroke="#0774B6" stroke-width="1.5" stroke-linecap="round" stroke-linejoin="round" stroke-miterlimit="10" d="
		M16.5,61.5V38C16.5,25,27,14.5,40,14.5l0,0C53,14.5,63.5,25,63.5,38v23.5H16.5z"/>
	<path fill="none" stroke="#0774B6" stroke-width="1.5" stroke-linecap="round" stroke-linejoin="round" stroke-miterlimit="10" d="
		M19.7,61.5V38c0-11.2,9.1-20.3,20.3-20.3l0,0c11.2,0,20.3,9.1,20.3,20.3v23.5H19.7z"/>
	
		<rect x="27.8" y="29.1" fill="none" stroke="#0774B6" stroke-width="1.5" stroke-linecap="round" stroke-linejoin="round" stroke-miterlimit="10" width="4.9" height="4.9"/>
	
		<rect x="31.1" y="56.6" fill="none" stroke="#0774B6" stroke-width="1.5" stroke-linecap="round" stroke-linejoin="round" stroke-miterlimit="10" width="6.5" height="4.9"/>
	
		<rect x="31.1" y="51.8" fill="none" stroke="#0774B6" stroke-width="1.5" stroke-linecap="round" stroke-linejoin="round" stroke-miterlimit="10" width="6.5" height="4.9"/>
	
		<rect x="31.1" y="46.9" fill="none" stroke="#0774B6" stroke-width="1.5" stroke-linecap="round" stroke-linejoin="round" stroke-miterlimit="10" width="6.5" height="4.9"/>
	
		<rect x="37.6" y="51.8" fill="none" stroke="#0774B6" stroke-width="1.5" stroke-linecap="round" stroke-linejoin="round" stroke-miterlimit="10" width="6.5" height="4.9"/>
	
		<rect x="37.6" y="56.6" fill="none" stroke="#0774B6" stroke-width="1.5" stroke-linecap="round" stroke-linejoin="round" stroke-miterlimit="10" width="6.5" height="4.9"/>
	
		<rect x="44.1" y="56.6" fill="none" stroke="#0774B6" stroke-width="1.5" stroke-linecap="round" stroke-linejoin="round" stroke-miterlimit="10" width="4.9" height="4.9"/>
	
		<rect x="37.6" y="29.1" fill="none" stroke="#0774B6" stroke-width="1.5" stroke-linecap="round" stroke-linejoin="round" stroke-miterlimit="10" width="4.9" height="4.9"/>
	
		<rect x="47.3" y="29.1" fill="none" stroke="#0774B6" stroke-width="1.5" stroke-linecap="round" stroke-linejoin="round" stroke-miterlimit="10" width="4.9" height="4.9"/>
</g>
</svg>
