<?xml version="1.0" encoding="utf-8"?>
<!-- Generator: Adobe Illustrator 18.1.0, SVG Export Plug-In . SVG Version: 6.00 Build 0)  -->
<svg version="1.1" id="Layer_1" xmlns="http://www.w3.org/2000/svg" xmlns:xlink="http://www.w3.org/1999/xlink" x="0px" y="0px"
	 viewBox="0 0 266.5 153.1" enable-background="new 0 0 266.5 153.1" xml:space="preserve">
<path fill="#F8F8F8" d="M133.2,0c42.3,0,76.5,34.2,76.5,76.5S175.5,153,133.2,153s-76.5-34.2-76.5-76.5S90.9,0,133.2,0z"/>
<g>
	
		<polygon fill="none" stroke="#0774B6" stroke-width="3" stroke-linecap="round" stroke-linejoin="round" stroke-miterlimit="10" points="
		93.5,48.6 99.4,39.6 167.1,39.6 173,48.6 	"/>
	
		<rect x="93.5" y="48.6" fill="none" stroke="#0774B6" stroke-width="3" stroke-linecap="round" stroke-linejoin="round" stroke-miterlimit="10" width="79.5" height="64.8"/>
	
		<rect x="146.4" y="54.4" fill="none" stroke="#0774B6" stroke-width="3" stroke-linecap="round" stroke-linejoin="round" stroke-miterlimit="10" width="20.6" height="16.2"/>
	
		<line fill="none" stroke="#0774B6" stroke-width="3" stroke-linecap="round" stroke-linejoin="round" stroke-miterlimit="10" x1="152.4" y1="60.3" x2="161.2" y2="60.3"/>
	
		<line fill="none" stroke="#0774B6" stroke-width="3" stroke-linecap="round" stroke-linejoin="round" stroke-miterlimit="10" x1="152.4" y1="64.7" x2="155.4" y2="64.7"/>
	
		<line fill="none" stroke="#0774B6" stroke-width="3" stroke-linecap="round" stroke-linejoin="round" stroke-miterlimit="10" x1="140.7" y1="48.6" x2="139.2" y2="39.6"/>
	
		<line fill="none" stroke="#0774B6" stroke-width="3" stroke-linecap="round" stroke-linejoin="round" stroke-miterlimit="10" x1="127.3" y1="39.6" x2="125.8" y2="48.6"/>
	<polygon fill="none" stroke="#0774B6" stroke-width="3" stroke-linecap="round" stroke-miterlimit="10" points="140.7,48.6 
		125.8,48.6 125.8,78.1 127.3,79.4 130.4,78.1 133.2,79.4 136.1,78.1 139.2,79.4 140.7,78.1 	"/>
</g>
</svg>
