<?xml version="1.0" encoding="utf-8"?>
<!-- Generator: Adobe Illustrator 18.1.0, SVG Export Plug-In . SVG Version: 6.00 Build 0)  -->
<svg version="1.1" id="Layer_1" xmlns="http://www.w3.org/2000/svg" xmlns:xlink="http://www.w3.org/1999/xlink" x="0px" y="0px"
	 viewBox="0 0 37 37" enable-background="new 0 0 37 37" xml:space="preserve">
<path fill-rule="evenodd" clip-rule="evenodd" fill="#FD3737" d="M18.5,0C28.7,0,37,8.3,37,18.5C37,28.7,28.7,37,18.5,37
	C8.3,37,0,28.7,0,18.5C0,8.3,8.3,0,18.5,0z"/>
<path fill="#FFFFFF" d="M14.9,18.1c1.8,0,3.3-1.4,3.3-3.1c0-1.7-1.5-3.1-3.3-3.1c-1.8,0-3.3,1.4-3.3,3.1
	C11.6,16.8,13.1,18.1,14.9,18.1z M12.3,25h2.7L25,12.1h-2.7L12.3,25z M14.9,16c-0.5,0-1-0.4-1-1c0-0.5,0.5-0.9,1-0.9
	c0.5,0,1,0.4,1,0.9C15.9,15.5,15.4,16,14.9,16z M19.3,22.1c0,1.7,1.4,3.1,3.3,3.1c1.8,0,3.3-1.4,3.3-3.1c0-1.7-1.5-3.1-3.3-3.1
	C20.7,19,19.3,20.4,19.3,22.1z M21.6,22.1c0-0.5,0.5-0.9,1-0.9c0.5,0,1,0.4,1,0.9c0,0.5-0.5,1-1,1C22,23.1,21.6,22.6,21.6,22.1z"/>
</svg>
