<?xml version="1.0" encoding="utf-8"?>
<!-- Generator: Adobe Illustrator 18.1.0, SVG Export Plug-In . SVG Version: 6.00 Build 0)  -->
<svg version="1.1" id="Layer_1" xmlns="http://www.w3.org/2000/svg" xmlns:xlink="http://www.w3.org/1999/xlink" x="0px" y="0px"
	 viewBox="0 0 266.5 153.1" enable-background="new 0 0 266.5 153.1" xml:space="preserve">
<path fill="#2ED1CF" d="M133.2,0c42.2,0,76.5,34.3,76.5,76.5s-34.3,76.5-76.5,76.5s-76.5-34.3-76.5-76.5S91,0,133.2,0z"/>
<path fill="#FFFFFF" d="M72.8,98.3h9.1V80.9c0-2.5-0.4-6.2-0.4-6.2l0,0c0,0,1.7,3.7,2.9,6.2l10.8,17.4h9.1V61.5h-9.1v17.4
	c0,2.5,0.4,6.2,0.4,6.2l0,0c0,0-1.7-3.7-2.9-6.2L82.3,61.5h-9.5V98.3z"/>
<path fill="#FFFFFF" d="M114.6,98.3h24v-7.9h-14.9v-7h11.2v-7.9h-11.2v-6.6h14.1v-7.9h-23.2V98.3z"/>
<path fill="#FFFFFF" d="M152.7,98.3H163l4.6-18.6c0.4-2.5,0.8-4.1,0.8-4.1l0,0c0,0,0,2.1,0.8,4.1l4.6,18.6h9.9l9.5-36.8h-9.5
	l-5,23.2c-0.4,2.1-0.4,3.7-0.4,3.7l0,0c0,0,0-1.7-0.4-3.7l-5.4-23.2h-7.4l-5.8,23.2c-0.4,2.1-0.4,3.7-0.4,3.7l0,0c0,0,0-1.7-0.4-3.7
	l-4.6-23.2h-10.3L152.7,98.3z"/>
</svg>
