<?xml version="1.0" encoding="utf-8"?>
<!-- Generator: Adobe Illustrator 18.1.0, SVG Export Plug-In . SVG Version: 6.00 Build 0)  -->
<svg version="1.1" id="Layer_1" xmlns="http://www.w3.org/2000/svg" xmlns:xlink="http://www.w3.org/1999/xlink" x="0px" y="0px"
	 viewBox="0 0 37 37" enable-background="new 0 0 37 37" xml:space="preserve">
<path fill-rule="evenodd" clip-rule="evenodd" fill="#F9D902" d="M18.5,0C28.7,0,37,8.3,37,18.5C37,28.7,28.7,37,18.5,37
	C8.3,37,0,28.7,0,18.5C0,8.3,8.3,0,18.5,0z"/>
<g>
	
		<path fill-rule="evenodd" clip-rule="evenodd" fill="none" stroke="#FFFFFF" stroke-width="1.3" stroke-linecap="round" stroke-linejoin="round" stroke-miterlimit="10" d="
		M16.2,17.4c2.1-4.1,4.8-5.3,3.9-9.3c-0.1-0.3,0.4-0.9,0.9-0.8l0,0C22,7.5,22.7,9,23,9.8c0.5,1.4,0.1,5.1-0.5,5.7
		c1.1-0.1,3.7,0,6.5,0.1c0.8,0,1.5,0.5,1.5,1.6c0,0.9-0.7,1.5-1.4,1.5h-4.4 M28.4,21.9c0.3,0.6,0.3,1.1,0.3,1.5
		c-0.1,1-0.8,1.8-1.8,1.8h-3.1 M29.1,18.7c0.3,0.4,0.4,1.1,0.4,1.5c0,0.9-0.8,1.7-1.7,1.7h-3.5"/>
	
		<line fill-rule="evenodd" clip-rule="evenodd" fill="none" stroke="#FFFFFF" stroke-width="1.3" stroke-linecap="round" stroke-linejoin="round" stroke-miterlimit="10" x1="14.2" y1="16.2" x2="16.8" y2="16.2"/>
	
		<path fill-rule="evenodd" clip-rule="evenodd" fill="none" stroke="#FFFFFF" stroke-width="1.3" stroke-linecap="round" stroke-linejoin="round" stroke-miterlimit="10" d="
		M13.4,27.5H10c-0.4,0-0.7-0.3-0.8-0.7c-0.6-3.8-0.7-8.7-0.7-10.6c0-0.4,0.4-0.8,0.8-0.8h4c0.4,0,0.8,0.4,0.8,0.8v10.5
		C14.2,27.2,13.8,27.5,13.4,27.5z"/>
	
		<path fill-rule="evenodd" clip-rule="evenodd" fill="none" stroke="#FFFFFF" stroke-width="1.3" stroke-linecap="round" stroke-linejoin="round" stroke-miterlimit="10" d="
		M27,25.2c0.1,0.3,0.1,0.6,0.1,1c-0.1,1-0.8,1.5-2,1.8c-1.4,0.3-2.6,0.4-5.2,0.4c-2.2,0-3.2-1.1-4-1.6c-1,0-1.6,0-1.6,0"/>
	
		<line fill="none" stroke="#FFFFFF" stroke-width="1.3" stroke-linecap="round" stroke-linejoin="round" stroke-miterlimit="10" x1="22.6" y1="15.4" x2="21.4" y2="15.4"/>
	
		<line fill="none" stroke="#FFFFFF" stroke-width="1.3" stroke-linecap="round" stroke-linejoin="round" stroke-miterlimit="10" x1="12.1" y1="25.5" x2="12.1" y2="25.5"/>
</g>
</svg>
