<?xml version="1.0" encoding="utf-8"?>
<!-- Generator: Adobe Illustrator 18.1.0, SVG Export Plug-In . SVG Version: 6.00 Build 0)  -->
<svg version="1.1" id="Layer_1" xmlns="http://www.w3.org/2000/svg" xmlns:xlink="http://www.w3.org/1999/xlink" x="0px" y="0px"
	 viewBox="0 0 41 43.1" enable-background="new 0 0 41 43.1" xml:space="preserve">
<path fill-rule="evenodd" clip-rule="evenodd" fill="#F1F1F1" d="M5,0.1h36l0,32.6L30.6,43.1H5V0.1z"/>
<path fill-rule="evenodd" clip-rule="evenodd" fill="#AAABAB" d="M30.6,43.1V32.7H41L30.6,43.1z"/>
<path fill-rule="evenodd" clip-rule="evenodd" fill="#2F8DD8" d="M0,10.1h27v13H0V10.1z"/>
<path fill="#FFFFFF" d="M3.4,19.8h2.3c2,0,3.3-1.2,3.3-3.2s-1.3-3.2-3.3-3.2H3.4V19.8z M5,18.5v-3.7h0.6c1.1,0,1.8,0.6,1.8,1.9
	c0,1.2-0.7,1.9-1.8,1.9H5z"/>
<path fill="#FFFFFF" d="M10.1,16.6c0,1.9,1.4,3.4,3.4,3.4s3.4-1.5,3.4-3.4c0-1.8-1.4-3.3-3.4-3.3S10.1,14.7,10.1,16.6z M11.8,16.6
	c0-1.1,0.7-1.8,1.7-1.8s1.7,0.8,1.7,1.8c0,1.1-0.7,1.9-1.7,1.9S11.8,17.7,11.8,16.6z"/>
<path fill="#FFFFFF" d="M18,16.6c0,1.9,1.3,3.3,3.4,3.3c1.2,0,2-0.5,2.6-1.1l-0.8-1.2c-0.4,0.4-1.1,0.8-1.7,0.8
	c-1.2,0-1.8-1-1.8-1.9c0-0.9,0.5-1.8,1.8-1.8c0.6,0,1.2,0.3,1.6,0.7l0.7-1.2c-0.6-0.6-1.5-0.9-2.4-0.9C19.3,13.3,18,14.7,18,16.6z"
	/>
</svg>
