<?xml version="1.0" encoding="utf-8"?>
<!-- Generator: Adobe Illustrator 18.1.0, SVG Export Plug-In . SVG Version: 6.00 Build 0)  -->
<svg version="1.1" id="Ñëîé_1" xmlns="http://www.w3.org/2000/svg" xmlns:xlink="http://www.w3.org/1999/xlink" x="0px" y="0px"
	 viewBox="56.7 0 153.1 153.1" enable-background="new 56.7 0 153.1 153.1" xml:space="preserve">
<g>
	<g>
		<path fill="#CDCDCD" d="M133.2,0C91,0,56.7,34.3,56.7,76.5s34.3,76.5,76.5,76.5s76.5-34.3,76.5-76.5S175.5,0,133.2,0z M133,87.1
			c-11.5,0-58.1,6.2-61.7,20.8C66.2,98.4,64,87.5,64,76.5c0-37.9,31.3-69.2,69.2-69.2s69.2,31.3,69.2,69.2c0,11.7-2.9,21.9-7.3,31.3
			C191.5,93.3,144.5,87.1,133,87.1z M133.2,14.6c-18.5,0-25.5,9.5-25.5,21.9v7.3c0,12.4,9.5,36.4,21.9,36.4h7.3
			c12.4,0,21.9-24.1,21.9-36.4v-7.3C158.7,24.1,151.7,14.6,133.2,14.6z"/>
	</g>
</g>
</svg>
