<?xml version="1.0" encoding="utf-8"?>
<!-- Generator: Adobe Illustrator 18.1.0, SVG Export Plug-In . SVG Version: 6.00 Build 0)  -->
<svg version="1.1" id="icons" xmlns="http://www.w3.org/2000/svg" xmlns:xlink="http://www.w3.org/1999/xlink" x="0px" y="0px"
	 viewBox="0 0 64 60.3" enable-background="new 0 0 64 60.3" xml:space="preserve">
<g id="_x31_3_x5F_shopping_x5F_cart">
	<g>
		<g>
			
				<line fill="none" stroke="#0774B6" stroke-width="2" stroke-linejoin="round" stroke-miterlimit="10" x1="43" y1="53.3" x2="24" y2="53.3"/>
			
				<line fill="none" stroke="#0774B6" stroke-width="2" stroke-linejoin="round" stroke-miterlimit="10" x1="22" y1="49.3" x2="45" y2="49.3"/>
			<path fill="none" stroke="#0774B6" stroke-width="2" stroke-linejoin="round" stroke-miterlimit="10" d="M12,53.3c-5,0-9-4-9-9
				s4-9,9-9h43c0,2.2-1.8,4-4,4H12c-2.8,0-5,2.2-5,5s2.2,5,5,5h2"/>
			<g>
				
					<circle fill="none" stroke="#0774B6" stroke-width="2" stroke-linejoin="round" stroke-miterlimit="10" cx="49" cy="53.3" r="6"/>
			</g>
			<g>
				
					<circle fill="none" stroke="#0774B6" stroke-width="2" stroke-linejoin="round" stroke-miterlimit="10" cx="18" cy="53.3" r="6"/>
			</g>
			<polyline fill="none" stroke="#0774B6" stroke-width="2" stroke-linejoin="round" stroke-miterlimit="10" points="15,13.3 
				63,13.3 55,35.3 12,35.3 12,13.3 			"/>
			<path fill="none" stroke="#0774B6" stroke-width="2" stroke-linejoin="round" stroke-miterlimit="10" d="M5,1.3c1.7,0,3,1.3,3,3
				v32"/>
			<path fill="none" stroke="#0774B6" stroke-width="2" stroke-linejoin="round" stroke-miterlimit="10" d="M9,1.3c1.7,0,3,1.3,3,3
				v9"/>
			
				<line fill="none" stroke="#0774B6" stroke-width="2" stroke-linejoin="round" stroke-miterlimit="10" x1="0" y1="1.3" x2="9" y2="1.3"/>
			<path fill="none" stroke="#0774B6" stroke-width="2" stroke-linejoin="round" stroke-miterlimit="10" d="M64,59.3"/>
			<path fill="none" stroke="#0774B6" stroke-width="2" stroke-linejoin="round" stroke-miterlimit="10" d="M0,59.3"/>
			<path fill="none" stroke="#0774B6" stroke-width="2" stroke-linejoin="round" stroke-miterlimit="10" d="M56,19.3
				c-2.1,0-1.9,2-4,2c-2.1,0-1.9-2-4-2c-2.1,0-1.9,2-4,2c-2.1,0-1.9-2-4-2c-2.1,0-1.9,2-4,2c-2.1,0-1.9-2-4-2c-2.1,0-1.9,2-4,2
				c-2.1,0-1.9-2-4-2c-2.1,0-1.9,2-4,2c-2.1,0-1.9-2-4-2"/>
			<path fill="none" stroke="#0774B6" stroke-width="2" stroke-linejoin="round" stroke-miterlimit="10" d="M52,29.3
				c-2.1,0-1.9-2-4-2c-2.1,0-1.9,2-4,2c-2.1,0-1.9-2-4-2c-2.1,0-1.9,2-4,2c-2.1,0-1.9-2-4-2c-2.1,0-1.9,2-4,2c-2.1,0-1.9-2-4-2
				c-2.1,0-1.9,2-4,2c-2.1,0-1.9-2-4-2"/>
		</g>
		<circle fill="none" stroke="#0774B6" stroke-width="2" stroke-linejoin="round" stroke-miterlimit="10" cx="18" cy="53.3" r="1"/>
		<circle fill="none" stroke="#0774B6" stroke-width="2" stroke-linejoin="round" stroke-miterlimit="10" cx="49" cy="53.3" r="1"/>
	</g>
</g>
</svg>
