<?xml version="1.0" encoding="utf-8"?>
<!-- Generator: Adobe Illustrator 18.1.0, SVG Export Plug-In . SVG Version: 6.00 Build 0)  -->
<svg version="1.1" id="Layer_1" xmlns="http://www.w3.org/2000/svg" xmlns:xlink="http://www.w3.org/1999/xlink" x="0px" y="0px"
	 viewBox="0 0 18.8 17.3" enable-background="new 0 0 18.8 17.3" xml:space="preserve">
<path fill="none" stroke="#494949" stroke-width="1.3" stroke-miterlimit="10" d="M3.3,3.2H18l-0.9,4.6c-0.3,1.7-1.8,3-3.5,3.1
	l-9,0.6L3.3,3.2z"/>
<path fill="none" stroke="#494949" stroke-width="1.3" stroke-miterlimit="10" d="M17.2,14H7.5c-1.5,0-2.8-1.1-3.1-2.5L2.5,0.7H0"/>
<g>
	<path fill="#494949" d="M6.1,15.8c0.1,0,0.2,0.1,0.2,0.2c0,0.1-0.1,0.2-0.2,0.2c-0.1,0-0.2-0.1-0.2-0.2C5.9,15.9,6,15.8,6.1,15.8
		 M6.1,14.8c-0.7,0-1.2,0.6-1.2,1.2s0.5,1.2,1.2,1.2s1.2-0.6,1.2-1.2S6.8,14.8,6.1,14.8L6.1,14.8z"/>
</g>
<g>
	<path fill="#494949" d="M15.1,15.8c0.1,0,0.2,0.1,0.2,0.2c0,0.1-0.1,0.2-0.2,0.2c-0.1,0-0.2-0.1-0.2-0.2
		C14.9,15.9,15,15.8,15.1,15.8 M15.1,14.8c-0.7,0-1.2,0.6-1.2,1.2s0.5,1.2,1.2,1.2c0.7,0,1.2-0.6,1.2-1.2S15.8,14.8,15.1,14.8
		L15.1,14.8z"/>
</g>
</svg>
