<?xml version="1.0" encoding="utf-8"?>
<!-- Generator: Adobe Illustrator 18.1.0, SVG Export Plug-In . SVG Version: 6.00 Build 0)  -->
<svg version="1.1" id="Layer_1" xmlns="http://www.w3.org/2000/svg" xmlns:xlink="http://www.w3.org/1999/xlink" x="0px" y="0px"
	 viewBox="0 0 266.5 153.1" enable-background="new 0 0 266.5 153.1" xml:space="preserve">
<g>
	<path fill="#494949" d="M133.2,14.5l14.5,40l2.6,6.8h6.8l42.5,0.9l-34,25.5l-6,4.3l1.7,6.8l12.8,40.8l-34.9-24.7l-6-4.3l-6,4.3
		l-34.9,24.7l12.8-40.8l1.7-6.8l-6-4.3l-34-25.5l42.5-0.9h6.8l2.6-6.8L133.2,14.5 M133.2,0c-3.4,0-6.8,1.7-7.7,5.1L109.4,51
		l-49.3,1.7c-3.4,0-6,1.7-7.7,5.1c-0.9,3.4,0,6.8,2.6,9.4l40,28.9l-14.5,46.8c-0.9,2.6,0,5.1,0.9,6.8c1.7,2.6,4.3,3.4,6.8,3.4
		c1.7,0,3.4-0.9,4.3-1.7l40-28.1l40,28.1c1.7,0.9,2.6,1.7,4.3,1.7l0,0c2.6,0,5.1-0.9,6.8-3.4c1.7-1.7,1.7-4.3,0.9-6.8l-12.8-46.8
		l39.1-29.8c2.6-1.7,3.3-5.9,2.6-8.5c-1.2-3.6-4.3-5.1-7.7-6L157,51L140.9,5.1C139.2,1.7,136.6,0,133.2,0L133.2,0z"/>
</g>
</svg>
