<?xml version="1.0" encoding="utf-8"?>
<!-- Generator: Adobe Illustrator 18.1.0, SVG Export Plug-In . SVG Version: 6.00 Build 0)  -->
<svg version="1.1" id="Symbols__x26__Arrows" xmlns="http://www.w3.org/2000/svg" xmlns:xlink="http://www.w3.org/1999/xlink"
	 x="0px" y="0px" viewBox="0 0 16 19" enable-background="new 0 0 16 19" xml:space="preserve">
<g>
	<g>
		<path fill="#05A2F1" d="M9,9c-0.5,0-1,0.4-1,1s0.4,1,1,1c0.5,0,1-0.4,1-1S9.6,9,9,9z M15,1c-1-0.2-6.2-0.8-8-1C5.3-0.1,5,2,5,2v15
			c0,0-0.2,2.2,2,2c0.8-0.2,4.6-0.6,7-1c2.1-0.4,2-2,2-2s0-12.3,0-13C16,2.4,16,1.2,15,1z M14,17c-1.2,0.2-6.3,0.9-7.1,1
			S6,16.9,6,16.9V2.1c0,0,0.1-1.2,0.9-1.1c0.8,0.1,6.5,0.7,7.4,0.9C15.2,2.2,15,3.2,15,3.2v12.6C15,15.8,15.2,16.8,14,17z M0,1.4
			v16.2C0,17.8,0.2,18,0.4,18L4,18v-1H1V2h3V1L0.4,1C0.2,1,0,1.2,0,1.4z"/>
	</g>
</g>
</svg>
