<?xml version="1.0" encoding="utf-8"?>
<!-- Generator: Adobe Illustrator 18.1.0, SVG Export Plug-In . SVG Version: 6.00 Build 0)  -->
<svg version="1.1" id="Layer_1" xmlns="http://www.w3.org/2000/svg" xmlns:xlink="http://www.w3.org/1999/xlink" x="0px" y="0px"
	 viewBox="0 0 17 17" enable-background="new 0 0 17 17" xml:space="preserve">
<g>
	<path fill="#DCDCDC" d="M8.5,1.5c3.9,0,7,3.1,7,7c0,3.9-3.1,7-7,7s-7-3.1-7-7C1.5,4.6,4.6,1.5,8.5,1.5 M8.5,0C3.8,0,0,3.8,0,8.5
		S3.8,17,8.5,17S17,13.2,17,8.5S13.2,0,8.5,0L8.5,0z"/>
</g>
<path fill="#DCDCDC" d="M8.6,5.5H10l0.2-1.3H8.8L8.6,5.5z M7.2,12.3h1.4l1.1-5.8H8.4L7.2,12.3z"/>
</svg>
