<?xml version="1.0" encoding="utf-8"?>
<!-- Generator: Adobe Illustrator 18.1.0, SVG Export Plug-In . SVG Version: 6.00 Build 0)  -->
<svg version="1.1" id="Layer_1" xmlns="http://www.w3.org/2000/svg" xmlns:xlink="http://www.w3.org/1999/xlink" x="0px" y="0px"
	 viewBox="0 0 89 19" enable-background="new 0 0 89 19" xml:space="preserve">
<g>
	<g>
		<path fill-rule="evenodd" clip-rule="evenodd" fill="#FF0000" d="M73.9,7.9H71V1.5h-3.3v16.1H71v-6.7h2.8v6.7h3.3V1.5h-3.3V7.9z
			 M48.3,9.2L47,1.5h-4.5v16.1h3V7.3l1.8,10.2h2l1.8-10.2v10.2h3V1.5h-4.5L48.3,9.2z M27.7,1.5l-2,7.2l-2-7.2h-3.3L24,12.3v5.3h3.5
			v-5.3L31,1.5H27.7z M33.5,1.5l-2.8,16.1h3.2l0.5-3.8h2.4l0.5,3.8h3.3L37.9,1.5H33.5z M34.9,10.8l0.8-5.7l0.8,5.7H34.9z M58.8,1.5
			l-2.8,16.1h3.2l0.5-3.8h2.4l0.5,3.8h3.3L63.1,1.5H58.8z M60.1,10.8l0.8-5.7l0.8,5.7H60.1z M86.2,1.5h-4.3L79,17.5h3.2l0.5-3.8h2.4
			l0.5,3.8H89L86.2,1.5z M83.2,10.8L84,5.1l0.8,5.7H83.2z M9.4,0C4.2,0,0,4.3,0,9.5C0,14.7,4.2,19,9.4,19c5.2,0,9.4-4.3,9.4-9.5
			C18.9,4.3,14.7,0,9.4,0z M9.4,18.6c-5,0-9.1-4.1-9.1-9.1c0-5,4.1-9.1,9.1-9.1c5,0,9.1,4.1,9.1,9.1C18.5,14.5,14.5,18.6,9.4,18.6z
			 M6.2,10.6c-0.3,0.2-0.4,0.6-0.2,0.9c0.2,0.3,0.6,0.4,0.9,0.2L8,11.1v-0.8L7.4,9.9L6.2,10.6z M12.7,10.6l-1.1-0.7l-0.7,0.4v0.8
			l1.1,0.7c0.3,0.2,0.7,0.1,0.9-0.2C13.1,11.2,13,10.8,12.7,10.6z M10,1.9L9.6,0.7c0-0.1-0.1-0.1-0.2-0.1c-0.1,0-0.1,0-0.2,0.1
			L8.9,1.9c-3.9,0.3-7,3.6-7,7.6c0,1.2,0.3,2.3,0.7,3.3l-0.9,1c0,0.1-0.1,0.1,0,0.2c0,0.1,0.1,0.1,0.2,0.1l1.3-0.3
			c1.4,2,3.6,3.3,6.2,3.3c2.6,0,4.9-1.3,6.2-3.3l1.3,0.3c0.1,0,0.1,0,0.2-0.1c0-0.1,0-0.2,0-0.2l-0.9-1c0.5-1,0.7-2.1,0.7-3.3
			C17,5.5,13.9,2.2,10,1.9z M17,13.8C17,13.8,17,13.9,17,13.8C17,13.9,16.9,13.9,17,13.8l-2.8-0.6l0,0c0-0.3-0.2-0.6-0.5-0.7
			c-0.3-0.2-0.6-0.2-0.8-0.1l0,0c-0.4,0.2-0.9,0.2-1.3-0.1l0,0l0,0c0,0,0,0,0,0L10.9,12v4h-0.8v-4.4l-0.7-0.4l-0.7,0.4V16H8v-4
			l-0.8,0.4c0,0,0,0,0,0l0,0l0,0c-0.4,0.2-0.9,0.2-1.3,0.1l0,0c-0.3-0.1-0.6-0.1-0.8,0.1c-0.3,0.2-0.4,0.4-0.5,0.7L2,13.9
			c0,0-0.1,0-0.1,0c0,0,0-0.1,0-0.1l1.9-2l0,0c0.3,0.1,0.6,0.1,0.8,0c0.3-0.2,0.4-0.4,0.5-0.7l0,0c0.1-0.4,0.3-0.8,0.7-1.1l0,0l0,0
			c0,0,0,0,0,0l0.8-0.4l-3.4-2l0.4-0.7l3.8,2.2L8,8.7V7.9L4.2,5.7L4.6,5L8,7V6.1C8,5.7,8.3,5.3,8.6,5l0,0C8.8,4.8,9,4.5,9,4.2
			c0-0.3-0.1-0.6-0.4-0.8l0.8-2.7c0,0,0,0,0,0c0,0,0,0,0,0l0.8,2.7l0,0c-0.2,0.2-0.4,0.5-0.4,0.8c0,0.3,0.1,0.6,0.4,0.8l0,0
			c0.3,0.3,0.6,0.7,0.6,1.1V7l3.4-2l0.4,0.7l-3.8,2.2v0.8l0.7,0.4l3.8-2.2l0.4,0.7l-3.4,2l0.8,0.4c0,0,0,0,0,0l0,0l0,0
			c0.4,0.2,0.6,0.6,0.7,1.1l0,0c0,0.3,0.2,0.6,0.5,0.7c0.3,0.2,0.6,0.2,0.8,0L17,13.8z M8.8,9.1v0.8l0.7,0.4l0.7-0.4V9.1L9.4,8.7
			L8.8,9.1z M9.4,5.5c-0.4,0-0.7,0.3-0.7,0.7v1.3l0.7,0.4l0.7-0.4V6.1C10.1,5.8,9.8,5.5,9.4,5.5z"/>
	</g>
</g>
</svg>
