<?xml version="1.0" encoding="utf-8"?>
<!-- Generator: Adobe Illustrator 18.1.0, SVG Export Plug-In . SVG Version: 6.00 Build 0)  -->
<svg version="1.1" id="Layer_1" xmlns="http://www.w3.org/2000/svg" xmlns:xlink="http://www.w3.org/1999/xlink" x="0px" y="0px"
	 viewBox="69.5 0 127.6 153.1" enable-background="new 69.5 0 127.6 153.1" xml:space="preserve">
<g>
	<polygon fill="#05A2F1" points="122.2,2.6 105.2,20.4 122.2,20.4 	"/>
</g>
<path fill="#05A2F1" d="M175.7,59.5c2.6,0,4.3,2.6,4.3,4.3c0,2.6-1.7,4.3-4.3,4.3c-2.6,0-4.3-1.7-4.3-4.3
	C171.5,62.1,173.2,59.5,175.7,59.5z"/>
<path fill="#05A2F1" d="M158.7,59.5c2.6,0,4.3,2.6,4.3,4.3c0,2.6-1.7,4.3-4.3,4.3c-2.6,0-4.3-1.7-4.3-4.3
	C154.5,62.1,156.2,59.5,158.7,59.5z"/>
<path fill="#05A2F1" d="M112,119.1h42.5v8.5H112V119.1z"/>
<path fill="#05A2F1" d="M112,102h42.5v8.5H112V102z"/>
<g>
	<path fill="#05A2F1" d="M163,93.5v51h-59.5v-51H163 M171.5,85H95v68h76.5V85L171.5,85z"/>
</g>
<g>
	<path fill="#05A2F1" d="M163,8.5v34h-53.6V20.4l10.2-11.9H163 M171.5,0h-55.3l-15.3,17l0.3,32.9l70.2-0.1V0L171.5,0z"/>
</g>
<g>
	<path fill="#05A2F1" d="M186.8,51c0.9,0,1.7,1.7,1.7,3.4v52.7c0,1.7-0.9,3.4-1.7,3.4h-15.3v-17V85H163h-59.5H95v8.5v17H79.7
		c-0.9,0-1.7-0.9-1.7-2.6V54.4c0-1.7,0.9-3.4,1.7-3.4H186.8 M186.8,42.5H79.7c-6,0-10.2,6-10.2,11.9v52.7c0,6.8,4.3,11.9,10.2,11.9
		h23.8V93.5H163v25.5h23.8c6,0,10.2-5.1,10.2-11.9V54.4C197,48.5,192.8,42.5,186.8,42.5L186.8,42.5z"/>
</g>
<path fill="none" d="M189.4,60.4L189.4,60.4"/>
<path fill="none" d="M179.2,60.4L179.2,60.4"/>
<path fill="none" d="M168.9,60.4L168.9,60.4"/>
</svg>
