<?xml version="1.0" encoding="utf-8"?>
<!-- Generator: Adobe Illustrator 18.1.0, SVG Export Plug-In . SVG Version: 6.00 Build 0)  -->
<svg version="1.1" id="Layer_1" xmlns="http://www.w3.org/2000/svg" xmlns:xlink="http://www.w3.org/1999/xlink" x="0px" y="0px"
	 viewBox="0 0 13 13" enable-background="new 0 0 13 13" xml:space="preserve">
<g>
	<g>
		<path fill-rule="evenodd" clip-rule="evenodd" fill="#05A2F1" d="M10.8,8.8c-0.5,0-1,0.2-1.4,0.5l-5-2.1C4.4,7,4.5,6.7,4.5,6.5
			c0-0.3-0.1-0.5-0.2-0.7l5-2.1c0.4,0.3,0.9,0.5,1.5,0.5C12,4.2,13,3.3,13,2.1C13,0.9,12,0,10.8,0C9.6,0,8.6,0.9,8.6,2.1
			c0,0.2,0.1,0.5,0.1,0.7l-5,2.1C3.3,4.6,2.8,4.4,2.2,4.4C1,4.4,0,5.3,0,6.5c0,1.2,1,2.1,2.2,2.1c0.6,0,1.1-0.2,1.5-0.5l5,2.1
			c-0.1,0.2-0.1,0.5-0.1,0.7c0,1.2,1,2.1,2.2,2.1c1.2,0,2.2-0.9,2.2-2.1C13,9.7,12,8.8,10.8,8.8z"/>
	</g>
</g>
</svg>
