<?xml version="1.0" encoding="utf-8"?>
<!-- Generator: Adobe Illustrator 18.1.0, SVG Export Plug-In . SVG Version: 6.00 Build 0)  -->
<svg version="1.1" id="Layer_1" xmlns="http://www.w3.org/2000/svg" xmlns:xlink="http://www.w3.org/1999/xlink" x="0px" y="0px"
	 viewBox="0 0 30 30" enable-background="new 0 0 30 30" xml:space="preserve">
<g>
	<path fill="#3D5A98" d="M15,1.5c7.4,0,13.5,6.1,13.5,13.5c0,7.4-6.1,13.5-13.5,13.5C7.6,28.5,1.5,22.4,1.5,15
		C1.5,7.6,7.6,1.5,15,1.5 M15,0C6.7,0,0,6.7,0,15s6.7,15,15,15c8.3,0,15-6.7,15-15S23.3,0,15,0L15,0z"/>
</g>
<path fill-rule="evenodd" clip-rule="evenodd" fill="#3D5A98" d="M15.9,11.6v1.7H18l-0.5,2.2h-1.6V21h-2.3v-5.5H12v-2.2h1.6v-1.7
	c0,0-0.2-2.3,1.8-2.6H18v1.9h-1.2C16.8,10.9,16,10.9,15.9,11.6z"/>
</svg>
