<?xml version="1.0" encoding="utf-8"?>
<!-- Generator: Adobe Illustrator 18.1.0, SVG Export Plug-In . SVG Version: 6.00 Build 0)  -->
<svg version="1.1" id="Layer_1" xmlns="http://www.w3.org/2000/svg" xmlns:xlink="http://www.w3.org/1999/xlink" x="0px" y="0px"
	 viewBox="0 0 30 30" enable-background="new 0 0 30 30" xml:space="preserve">
<g>
	<path fill="#F49B19" d="M15,1.5c7.4,0,13.5,6.1,13.5,13.5c0,7.4-6.1,13.5-13.5,13.5S1.5,22.4,1.5,15C1.5,7.6,7.6,1.5,15,1.5 M15,0
		C6.7,0,0,6.7,0,15s6.7,15,15,15c8.3,0,15-6.7,15-15S23.3,0,15,0L15,0z"/>
</g>
<path fill="#F49B19" d="M18.6,11.5l-0.5,4.6c0,0.3-0.1,0.6-0.1,0.9c0,0.4,0.2,0.7,0.5,0.7c0.5,0,1-0.3,1.5-1
	c0.5-0.7,0.7-1.5,0.7-2.5c0-1.4-0.5-2.6-1.5-3.5c-1-0.9-2.3-1.3-3.7-1.3c-1.6,0-3,0.5-4.1,1.6c-1.1,1.1-1.6,2.5-1.6,4.1
	c0,1.5,0.5,2.8,1.5,3.9c1,1.1,2.5,1.7,4.3,1.7c1.4,0,2.9-0.4,4.4-1.2l0.6,1.3c-1.6,0.8-3.3,1.2-5,1.2c-2.3,0-4.1-0.7-5.5-2.1
	c-1.4-1.4-2-3-2-4.9c0-2,0.7-3.7,2.1-5c1.4-1.3,3.1-2,5.2-2c1.9,0,3.5,0.6,4.8,1.7c1.3,1.2,1.9,2.6,1.9,4.4c0,1.3-0.4,2.4-1.1,3.4
	c-0.7,1-1.6,1.5-2.6,1.5c-0.8,0-1.4-0.3-1.7-1C16,18.7,15.3,19,14.5,19c-0.8,0-1.6-0.3-2.1-1s-0.9-1.6-0.9-2.7c0-1.2,0.3-2.1,1-2.8
	c0.7-0.7,1.5-1.1,2.4-1.1c0.9,0,1.5,0.3,1.9,0.8l0.1-0.7H18.6L18.6,11.5z M14.6,17.4c0.5,0,1-0.3,1.4-0.8c0.4-0.5,0.6-1.2,0.6-2
	c0-0.5-0.2-0.9-0.5-1.2c-0.3-0.4-0.7-0.5-1.2-0.5c-0.5,0-0.9,0.2-1.3,0.7c-0.3,0.4-0.5,1-0.5,1.7c0,0.6,0.1,1.1,0.4,1.5
	C13.9,17.2,14.2,17.4,14.6,17.4z"/>
</svg>
