<?xml version="1.0" encoding="utf-8"?>
<!-- Generator: Adobe Illustrator 18.1.0, SVG Export Plug-In . SVG Version: 6.00 Build 0)  -->
<svg version="1.1" id="Layer_1" xmlns="http://www.w3.org/2000/svg" xmlns:xlink="http://www.w3.org/1999/xlink" x="0px" y="0px"
	 viewBox="0 0 30 30" enable-background="new 0 0 30 30" xml:space="preserve">
<g>
	<path fill="#F58220" d="M15,1.5c7.4,0,13.5,6.1,13.5,13.5c0,7.4-6.1,13.5-13.5,13.5C7.6,28.5,1.5,22.4,1.5,15
		C1.5,7.6,7.6,1.5,15,1.5 M15,0C6.7,0,0,6.7,0,15s6.7,15,15,15c8.3,0,15-6.7,15-15S23.3,0,15,0L15,0z"/>
</g>
<path fill-rule="evenodd" clip-rule="evenodd" fill="#F58220" d="M15,8c-1.8,0-3.3,1.4-3.3,3.2c0,1.8,1.5,3.2,3.3,3.2
	c1.8,0,3.3-1.4,3.3-3.2C18.3,9.4,16.8,8,15,8z M15,12.6c-0.8,0-1.4-0.6-1.4-1.3c0-0.7,0.6-1.3,1.4-1.3s1.4,0.6,1.4,1.3
	C16.4,12,15.8,12.6,15,12.6z"/>
<path fill-rule="evenodd" clip-rule="evenodd" fill="#F58220" d="M15,15.5c0,0,1.2,0.2,2.2-0.5c0,0,1-0.7,1.7,0.3c0,0,0.7,1.6-2,1.9
	c0,0-0.4,0-0.3,0.3c0.1,0.2,1.8,1.8,2,2.2c0.1,0.4,0.3,0.6-0.3,1.1c-0.6,0.5-1,0.4-2-0.5c-0.9-1-1.4-1.4-1.4-1.4V15.5z"/>
<path fill-rule="evenodd" clip-rule="evenodd" fill="#F58220" d="M15,15.5c0,0-1.2,0.2-2.2-0.5c0,0-1-0.7-1.7,0.3c0,0-0.7,1.6,2,1.9
	c0,0,0.4,0,0.3,0.3c-0.1,0.2-1.9,1.8-2,2.2c-0.1,0.4-0.3,0.6,0.3,1.1c0.6,0.5,1,0.4,2-0.5c0.9-1,1.4-1.4,1.4-1.4V15.5z"/>
</svg>
