<?xml version="1.0" encoding="utf-8"?>
<!-- Generator: Adobe Illustrator 18.1.0, SVG Export Plug-In . SVG Version: 6.00 Build 0)  -->
<svg version="1.1" id="Layer_1" xmlns="http://www.w3.org/2000/svg" xmlns:xlink="http://www.w3.org/1999/xlink" x="0px" y="0px"
	 viewBox="0 0 30 30" enable-background="new 0 0 30 30" xml:space="preserve">
<g>
	<path fill="#55ACEE" d="M15,1.5c7.4,0,13.5,6.1,13.5,13.5c0,7.4-6.1,13.5-13.5,13.5C7.6,28.5,1.5,22.4,1.5,15
		C1.5,7.6,7.6,1.5,15,1.5 M15,0C6.7,0,0,6.7,0,15s6.7,15,15,15c8.3,0,15-6.7,15-15S23.3,0,15,0L15,0z"/>
</g>
<path fill="#55ACEE" d="M23,11.2c-0.5,0.2-1.1,0.3-1.6,0.4c0.6-0.3,1-0.8,1.3-1.4c-0.6,0.3-1.2,0.5-1.8,0.6
	c-0.5-0.5-1.3-0.8-2.1-0.8c-1.6,0-2.9,1.1-2.9,2.5c0,0.2,0,0.4,0.1,0.6C13.5,13,11.4,12,10,10.5c-0.2,0.4-0.4,0.8-0.4,1.3
	c0,0.9,0.5,1.6,1.3,2.1c-0.5,0-0.9-0.1-1.3-0.3c0,0,0,0,0,0c0,1.2,1,2.2,2.3,2.5c-0.2,0.1-0.5,0.1-0.8,0.1c-0.2,0-0.4,0-0.5,0
	c0.4,1,1.4,1.7,2.7,1.8c-1,0.7-2.2,1.1-3.6,1.1c-0.2,0-0.5,0-0.7,0c1.3,0.7,2.8,1.1,4.4,1.1c5.3,0,8.2-3.8,8.2-7.2
	c0-0.1,0-0.2,0-0.3C22.1,12.1,22.6,11.7,23,11.2z"/>
</svg>
