<?xml version="1.0" encoding="utf-8"?>
<!-- Generator: Adobe Illustrator 18.1.0, SVG Export Plug-In . SVG Version: 6.00 Build 0)  -->
<svg version="1.1" id="Layer_1" xmlns="http://www.w3.org/2000/svg" xmlns:xlink="http://www.w3.org/1999/xlink" x="0px" y="0px"
	 viewBox="0 0 30 30" enable-background="new 0 0 30 30" xml:space="preserve">
<g>
	<path fill="#4B74A5" d="M15,1.5c7.4,0,13.5,6.1,13.5,13.5c0,7.4-6.1,13.5-13.5,13.5S1.5,22.4,1.5,15C1.5,7.6,7.6,1.5,15,1.5 M15,0
		C6.7,0,0,6.7,0,15s6.7,15,15,15c8.3,0,15-6.7,15-15S23.3,0,15,0L15,0z"/>
</g>
<path fill-rule="evenodd" clip-rule="evenodd" fill="#4A74A5" d="M14.3,19.9h0.9c0,0,0.3,0,0.4-0.2c0.1-0.1,0.1-0.4,0.1-0.4
	s0-1.3,0.5-1.5c0.6-0.2,1.3,1.2,2,1.7c0.6,0.4,1,0.3,1,0.3l2,0c0,0,1-0.1,0.6-0.9c0-0.1-0.3-0.6-1.5-1.8c-1.3-1.2-1.1-1,0.4-3.1
	c0.9-1.3,1.3-2.1,1.2-2.4c-0.1-0.3-0.8-0.3-0.8-0.3l-2.3,0c0,0-0.2,0-0.3,0.1c-0.1,0.1-0.2,0.3-0.2,0.3s-0.4,1-0.8,1.9
	c-1,1.8-1.4,1.9-1.6,1.8c-0.4-0.3-0.3-1-0.3-1.6c0-1.7,0.3-2.4-0.5-2.6C15,11,14.8,11,14.2,11c-0.8,0-1.5,0-1.9,0.2
	c-0.3,0.1-0.5,0.4-0.3,0.4c0.1,0,0.5,0.1,0.7,0.3c0.2,0.3,0.2,1.1,0.2,1.1s0.1,2-0.3,2.3c-0.3,0.2-0.7-0.2-1.6-1.8
	c-0.5-0.8-0.8-1.8-0.8-1.8s-0.1-0.2-0.2-0.3c-0.1-0.1-0.3-0.1-0.3-0.1l-2.1,0c0,0-0.3,0-0.4,0.2c-0.1,0.1,0,0.4,0,0.4
	s1.7,4.1,3.6,6.2C12.4,20,14.3,19.9,14.3,19.9z"/>
</svg>
