<?xml version="1.0" encoding="utf-8"?>
<!-- Generator: Adobe Illustrator 18.1.0, SVG Export Plug-In . SVG Version: 6.00 Build 0)  -->
<svg version="1.1" id="Layer_1" xmlns="http://www.w3.org/2000/svg" xmlns:xlink="http://www.w3.org/1999/xlink" x="0px" y="0px"
	 viewBox="0 0 38 38" enable-background="new 0 0 38 38" xml:space="preserve">
<g>
	<g>
		<path fill="#0673B6" d="M16.7,22.5v-1.6c0.8-0.2,1.5-0.6,2-1.3c0.4-0.7,0.6-1.5,0.3-2.3c-0.3-1.1-1.3-2.1-2.6-2.6
			c-0.9-0.4-1.5-0.8-1.6-1.3c-0.1-0.3,0-0.7,0.3-1c0.2-0.3,0.4-0.4,0.7-0.5c0.6-0.1,1.3,0.3,1.8,0.6c0.3,0.3,0.8,0.2,1.1-0.1
			c0.3-0.3,0.2-0.8-0.1-1.1c-0.2-0.2-0.9-0.6-1.8-0.8V9.1c0-0.4-0.3-0.8-0.8-0.8c-0.4,0-0.8,0.3-0.8,0.8v1.4c-0.5,0.2-1,0.5-1.3,1
			c-0.6,0.8-0.7,1.6-0.5,2.4c0.2,0.7,0.8,1.6,2.5,2.3c0.8,0.3,1.5,0.9,1.7,1.6c0.1,0.3,0.1,0.7-0.1,1c-0.4,0.5-1,0.7-1.5,0.7
			c-1,0-1.9-0.4-2.1-0.7c-0.3-0.3-0.7-0.4-1.1-0.1c-0.3,0.3-0.4,0.7-0.1,1.1c0.5,0.6,1.5,1.1,2.6,1.2v1.6c0,0.4,0.3,0.8,0.8,0.8
			C16.4,23.3,16.7,22.9,16.7,22.5z M28.4,15.8c0-7-5.7-12.6-12.6-12.6c-7,0-12.6,5.7-12.6,12.6c0,7,5.7,12.6,12.6,12.6
			C22.8,28.4,28.4,22.8,28.4,15.8z M4.7,15.8c0-6.1,5-11.1,11.1-11.1c6.1,0,11.1,5,11.1,11.1c0,6.1-5,11.1-11.1,11.1
			C9.7,26.9,4.7,21.9,4.7,15.8z M31.4,12.9C31.3,12.9,31.3,12.9,31.4,12.9C29.9,5.6,23.5,0,15.8,0C7.1,0,0,7.1,0,15.8
			c0,7.7,5.6,14.2,12.9,15.5C15,35.3,19.7,38,24.5,38C32,38,38,32,38,24.5C38,19.7,35.5,15.3,31.4,12.9z M31.4,18.3
			c1.6,1.7,2.4,3.9,2.4,6.2c0,5.1-4.2,9.3-9.3,9.3c-2.3,0-4.5-0.9-6.2-2.4C25,30.3,30.3,25,31.4,18.3z M1.5,15.8
			c0-7.9,6.4-14.3,14.3-14.3c7.9,0,14.3,6.4,14.3,14.3c0,7.9-6.4,14.3-14.3,14.3C7.9,30.1,1.5,23.7,1.5,15.8z M24.5,36.5
			c-3.9,0-7.7-2-9.7-4.9c0.3,0,0.6,0,1,0c0.2,0,0.4,0,0.6,0c2.1,2.4,5,3.8,8.2,3.8c6,0,10.8-4.8,10.8-10.8c0-3.2-1.4-6.1-3.8-8.2
			c0-0.2,0-0.4,0-0.6c0-0.3,0-0.6,0-0.9c3.1,2.2,4.9,5.8,4.9,9.7C36.5,31.1,31.1,36.5,24.5,36.5z"/>
	</g>
</g>
</svg>
