<?xml version="1.0" encoding="utf-8"?>
<!-- Generator: Adobe Illustrator 18.1.0, SVG Export Plug-In . SVG Version: 6.00 Build 0)  -->
<svg version="1.1" id="Layer_1" xmlns="http://www.w3.org/2000/svg" xmlns:xlink="http://www.w3.org/1999/xlink" x="0px" y="0px"
	 viewBox="0 0 38 38" enable-background="new 0 0 38 38" xml:space="preserve">
<g>
	<g>
		<path fill="#0673B6" d="M37.8,0.2C37.6,0,37.2-0.1,37,0.1L0.5,14.6C0.2,14.8,0,15.1,0,15.4c0,0.3,0.2,0.6,0.6,0.7l11.2,3.1
			l1.1,5.5c0.1,0.3,0.3,0.5,0.6,0.6l5.4,1.1l3.1,11.1c0.1,0.3,0.4,0.5,0.7,0.6c0,0,0,0,0,0c0.3,0,0.6-0.2,0.7-0.5L37.9,1
			C38.1,0.8,38,0.4,37.8,0.2z M34.3,2.8L17.7,19.3l-14.5-4L34.3,2.8z M14.3,23.9l-0.8-4.2l3.8,1.1c0,0,0,0,0,0c0,0,0,0,0,0l1.1,3.9
			L14.3,23.9z M22.8,34.9l-4-14.5L35.1,4.1L22.8,34.9z"/>
	</g>
</g>
</svg>
