<?xml version="1.0" encoding="utf-8"?>
<!-- Generator: Adobe Illustrator 18.1.0, SVG Export Plug-In . SVG Version: 6.00 Build 0)  -->
<svg version="1.1" id="Layer_1" xmlns="http://www.w3.org/2000/svg" xmlns:xlink="http://www.w3.org/1999/xlink" x="0px" y="0px"
	 viewBox="0 0 43 32" enable-background="new 0 0 43 32" xml:space="preserve">
<g>
	<g>
		<path fill="#0673B6" d="M39.4,0H3.6C1.6,0,0,1.7,0,3.8v24.5C0,30.3,1.6,32,3.6,32h35.8c2,0,3.6-1.7,3.6-3.8V3.8
			C43,1.7,41.4,0,39.4,0z M41.2,28.2c0,1-0.8,1.9-1.8,1.9H3.6c-1,0-1.8-0.9-1.8-1.9V15.7h39.4V28.2z M41.2,13.8H1.8V8.9h39.4V13.8z
			 M41.2,7H1.8V3.8c0-1,0.8-1.9,1.8-1.9h35.8c1,0,1.8,0.9,1.8,1.9V7z M5.9,21.3h19.9c0.5,0,0.9-0.4,0.9-0.9c0-0.5-0.4-0.9-0.9-0.9
			H5.9c-0.5,0-0.9,0.4-0.9,0.9C5,20.9,5.4,21.3,5.9,21.3z M5.9,25.1h10c0.5,0,0.9-0.4,0.9-0.9c0-0.5-0.4-0.9-0.9-0.9h-10
			c-0.5,0-0.9,0.4-0.9,0.9C5,24.7,5.4,25.1,5.9,25.1z"/>
	</g>
</g>
</svg>
