<?xml version="1.0" encoding="utf-8"?>
<!-- Generator: Adobe Illustrator 18.1.0, SVG Export Plug-In . SVG Version: 6.00 Build 0)  -->
<svg version="1.1" id="Layer_1" xmlns="http://www.w3.org/2000/svg" xmlns:xlink="http://www.w3.org/1999/xlink" x="0px" y="0px"
	 viewBox="0 0 37 34" enable-background="new 0 0 37 34" xml:space="preserve">
<g>
	<g>
		<path fill="#0774B6" d="M36.9,10.6L30.5,0.4c0-0.1-0.1-0.1-0.1-0.2c0,0,0,0,0,0c-0.1-0.1-0.2-0.1-0.3-0.2c0,0,0,0,0,0c0,0,0,0,0,0
			C29.9,0,29.8,0,29.7,0H7.3C7.2,0,7.1,0,7,0.1c0,0,0,0,0,0c0,0,0,0,0,0c-0.1,0-0.2,0.1-0.3,0.2c0,0,0,0,0,0
			C6.6,0.3,6.6,0.4,6.5,0.4L0.2,10.6c-0.2,0.4-0.2,0.8,0.1,1.2l17.6,21.9c0,0,0,0,0,0c0.1,0.1,0.2,0.1,0.2,0.2c0,0,0.1,0,0.1,0
			c0.1,0,0.2,0.1,0.4,0.1c0.1,0,0.2,0,0.4-0.1c0,0,0.1,0,0.1,0c0.1-0.1,0.2-0.1,0.2-0.2c0,0,0,0,0,0l17.6-21.9
			C37.1,11.4,37.1,10.9,36.9,10.6z M7.1,3.1l2.4,6.8H2.4L7.1,3.1z M25,11.6l-6.5,18.5l-6.5-18.5H25z M13,9.8l5.5-7.3L24,9.8H13z
			 M20.3,1.8h8.1l-2.6,7.3L20.3,1.8z M11.2,9.1L8.6,1.8h8.1L11.2,9.1z M10,11.6l6.1,17.6L2.5,11.6H10z M27,11.6h7.6L20.8,29.2
			L27,11.6z M27.6,9.8L30,3.1l4.7,6.8H27.6z"/>
	</g>
</g>
</svg>
